<?xml version="1.0" encoding="iso-8859-1"?>
<!-- Generator: Adobe Illustrator 19.0.0, SVG Export Plug-In . SVG Version: 6.00 Build 0)  -->
<svg version="1.1" id="Layer_1" xmlns="http://www.w3.org/2000/svg" xmlns:xlink="http://www.w3.org/1999/xlink" x="0px" y="0px"
	 viewBox="0 0 512 512" style="enable-background:new 0 0 512 512;" xml:space="preserve">
<g>
	<path style="fill:#DAC04E;" d="M113.521,294.795c6.048,5.983,6.048,15.685,0,21.669l-11.946,11.819
		c-6.048,5.984-15.853,5.984-21.901,0l0,0c-6.046-5.984-6.046-15.685,0-21.668l11.946-11.82
		C97.668,288.811,107.473,288.811,113.521,294.795L113.521,294.795z"/>
	<path style="fill:#DAC04E;" d="M163.296,245.55c6.048,5.984,6.048,15.685,0,21.669l-11.946,11.819
		c-6.048,5.984-15.853,5.984-21.901,0l0,0c-6.048-5.983-6.048-15.684,0-21.668l11.946-11.82
		C147.443,239.566,157.247,239.567,163.296,245.55L163.296,245.55z"/>
	<path style="fill:#DAC04E;" d="M213.067,196.303c6.05,5.985,6.05,15.685,0.002,21.669l-11.946,11.82
		c-6.048,5.983-15.853,5.983-21.901,0l0,0c-6.048-5.984-6.048-15.686,0-21.669l11.946-11.82
		C197.217,190.321,207.021,190.321,213.067,196.303L213.067,196.303z"/>
	<path style="fill:#DAC04E;" d="M256.773,229.696l-149.32,147.737c-29.14,28.832-29.14,75.572,0,104.403
		c29.14,28.83,76.382,28.83,105.521,0l149.319-147.739c29.14-28.83,29.14-75.571,0-104.401
		C333.156,200.866,285.913,200.866,256.773,229.696z M337.407,309.475l-149.32,147.737c-15.368,15.206-40.377,15.206-55.747,0
		c-15.368-15.206-15.368-39.949,0-55.157l149.321-147.736c15.37-15.207,40.377-15.207,55.747,0
		C352.777,269.524,352.777,294.267,337.407,309.475z"/>
</g>
<path style="fill:#F0D355;" d="M339.303,9.434c-1.915,0.713-3.608,1.81-5,3.188c-2.366,2.341-3.862,5.492-4.095,8.926l-9.76,145.147
	L24.058,459.942l23.891,23.639l296.391-293.247l146.706-9.659c3.47-0.228,6.653-1.708,9.021-4.05
	c1.39-1.378,2.501-3.053,3.222-4.949c1.941-5.116,0.681-10.883-3.226-14.747L354.213,12.623
	C350.305,8.759,344.476,7.51,339.303,9.434z"/>
<path style="fill:#FFFFFF;" d="M375.814,181.406c-4.095,0-7.535-3.188-7.793-7.33c-0.268-4.307,3.008-8.016,7.315-8.283
	l115.891-7.197c4.302-0.272,8.016,3.008,8.283,7.315c0.268,4.307-3.008,8.016-7.315,8.283l-115.891,7.197
	C376.141,181.4,375.978,181.406,375.814,181.406z"/>
<path style="fill:#DAC04E;" d="M65.144,467.554c7.422,7.342,7.422,19.25,0,26.592l0,0c-7.424,7.342-19.455,7.342-26.879,0
	l-24.886-24.623c-7.424-7.345-7.424-19.25,0-26.593l0,0c7.422-7.343,19.455-7.343,26.876,0L65.144,467.554z"/>
<path style="fill:#636052;" d="M505.562,151.375L359.71,7.068c-4.133-4.089-9.621-6.339-15.454-6.339
	c-2.627,0-5.21,0.465-7.674,1.382c-2.938,1.092-5.553,2.76-7.772,4.956c-3.769,3.728-6.04,8.684-6.396,13.958l-9.563,142.197
	l-67.439,66.723l-10.539,10.428l-16.665-16.49l0.358-0.355c4.42-4.373,6.854-10.193,6.854-16.388s-2.436-12.015-6.856-16.389
	c-4.398-4.351-10.236-6.746-16.445-6.746c-6.207,0-12.048,2.395-16.447,6.746l-11.944,11.819c-4.42,4.372-6.856,10.192-6.856,16.388
	c0,6.195,2.434,12.017,6.856,16.391c4.398,4.35,10.238,6.746,16.445,6.746c6.209,0,12.049-2.396,16.447-6.747l0.476-0.471
	l16.667,16.49L185.1,289.616l-16.665-16.488l0.358-0.355c4.42-4.373,6.854-10.193,6.854-16.389s-2.434-12.015-6.854-16.389
	c-4.4-4.351-10.24-6.746-16.447-6.746c-6.209,0-12.049,2.396-16.447,6.748l-11.946,11.82c-4.42,4.373-6.854,10.194-6.854,16.391
	c0,6.195,2.436,12.015,6.854,16.386c4.4,4.352,10.24,6.749,16.447,6.749c6.209,0,12.049-2.396,16.447-6.748l0.476-0.472
	l16.667,16.49l-38.665,38.254l-16.665-16.49l0.358-0.355c4.42-4.373,6.854-10.194,6.854-16.389c0-6.195-2.434-12.017-6.854-16.387
	c-4.398-4.352-10.238-6.749-16.447-6.749c-6.207,0-12.049,2.396-16.447,6.749l-11.946,11.82c-4.418,4.372-6.852,10.192-6.852,16.387
	c0,6.195,2.434,12.016,6.852,16.389c4.4,4.352,10.24,6.749,16.447,6.749c6.209,0,12.049-2.396,16.447-6.746l0.476-0.472
	l16.667,16.488l-22.259,22.023c0,0,0,0.001-0.002,0.002l-61.866,61.21c-3.999-2.268-8.539-3.482-13.268-3.482
	c-7.149,0-13.873,2.758-18.934,7.767C2.802,442.405,0,449.1,0,456.226c0,7.126,2.801,13.822,7.885,18.853l24.888,24.624
	c5.063,5.009,11.787,7.765,18.934,7.765s13.872-2.757,18.936-7.767c5.086-5.03,7.885-11.726,7.883-18.853
	c0-4.667-1.209-9.146-3.465-13.097l8.401-8.311c4.089,10.353,10.317,19.856,18.496,27.95c15.565,15.401,36.256,23.882,58.258,23.882
	c22,0,42.691-8.481,58.256-23.882l149.319-147.739c15.588-15.423,24.172-35.933,24.172-57.755s-8.583-42.333-24.172-57.756
	c-8.138-8.053-17.687-14.19-28.083-18.231l8.057-7.97l143.796-9.467c5.278-0.346,10.253-2.581,14.013-6.299
	c2.225-2.207,3.916-4.805,5.022-7.724C513.631,166.457,511.652,157.4,505.562,151.375z M190.175,226.464
	c-2.063,0-4.001-0.792-5.453-2.228c-1.431-1.415-2.218-3.29-2.218-5.28c0-1.989,0.788-3.863,2.218-5.278l11.946-11.819
	c1.451-1.437,3.388-2.228,5.453-2.228s4.001,0.791,5.453,2.228c1.431,1.415,2.218,3.29,2.218,5.279s-0.788,3.863-2.218,5.278
	l-11.944,11.819C194.178,225.673,192.241,226.464,190.175,226.464z M140.402,275.71c-2.063,0-4.001-0.792-5.453-2.23
	c-1.431-1.414-2.218-3.288-2.218-5.277c0-1.989,0.788-3.865,2.218-5.279l11.945-11.82c1.453-1.436,3.388-2.228,5.453-2.228
	c2.065,0,4.003,0.792,5.453,2.228c1.431,1.415,2.218,3.29,2.218,5.279c0,1.989-0.788,3.865-2.216,5.278l-11.948,11.82
	C144.405,274.918,142.467,275.71,140.402,275.71z M90.627,324.957c-2.063,0-4.001-0.792-5.453-2.229
	c-1.428-1.414-2.216-3.289-2.216-5.279c0-1.99,0.788-3.865,2.216-5.278l11.946-11.82c1.453-1.437,3.39-2.229,5.453-2.229
	c2.065,0,4.003,0.792,5.456,2.23c1.428,1.414,2.216,3.288,2.216,5.277c0,1.99-0.788,3.866-2.216,5.279l-11.948,11.82
	C94.63,324.165,92.693,324.957,90.627,324.957z M59.652,488.59c-2.118,2.094-4.939,3.248-7.945,3.248
	c-3.004,0-5.826-1.153-7.943-3.247l-24.886-24.624c-2.096-2.072-3.25-4.822-3.25-7.743c0-2.919,1.153-5.667,3.25-7.741
	c2.116-2.094,4.937-3.248,7.943-3.248c3.004,0,5.824,1.153,7.943,3.249l24.888,24.624c2.094,2.071,3.246,4.82,3.246,7.74
	C62.9,483.769,61.747,486.519,59.652,488.59z M356.798,235.251c12.599,12.464,19.536,29.029,19.536,46.646
	c0,17.615-6.937,34.181-19.536,46.645L207.48,476.281c-12.619,12.485-29.406,19.362-47.263,19.362
	c-17.86,0-34.644-6.877-47.265-19.362c-8.291-8.204-14.105-18.19-17.123-29.076l17.186-17.004
	c0.147,12.321,5.039,23.867,13.832,32.567c8.905,8.811,20.757,13.663,33.37,13.663s24.463-4.852,33.368-13.664l149.32-147.737
	c8.929-8.833,13.846-20.601,13.846-33.135c0-12.531-4.919-24.298-13.846-33.131c-8.752-8.658-20.348-13.483-32.714-13.649
	l17.047-16.865C338.312,221.234,348.467,227.008,356.798,235.251z M315.51,320.149l-44.636-44.164l16.284-16.111
	c5.961-5.898,13.91-9.146,22.377-9.146c8.47,0,16.417,3.248,22.378,9.146c5.938,5.874,9.209,13.694,9.209,22.021
	c0,8.326-3.271,16.148-9.211,22.025L315.51,320.149z M259.763,286.979l44.636,44.164l-38.663,38.253l-44.638-44.164L259.763,286.979
	z M209.989,336.225l44.636,44.163l-38.663,38.253l-44.638-44.163L209.989,336.225z M160.215,385.471l44.638,44.163l-22.261,22.024
	c-5.959,5.896-13.906,9.144-22.375,9.144s-16.419-3.248-22.38-9.144c-5.938-5.875-9.209-13.696-9.209-22.022
	c0-8.327,3.271-16.15,9.209-22.026L160.215,385.471z M495.985,168.902c-0.309,0.818-0.788,1.549-1.411,2.167
	c-1.076,1.066-2.511,1.709-4.04,1.809l-146.706,9.659c-1.876,0.123-3.647,0.92-4.984,2.242L64.648,456.069l-12.78-12.646
	L325.948,172.25c1.356-1.34,2.173-3.129,2.302-5.03l9.76-145.145c0.098-1.467,0.735-2.851,1.795-3.899
	c0.633-0.626,1.382-1.103,2.227-1.417c2.306-0.854,4.966-0.281,6.687,1.419l145.853,144.308
	C496.272,164.168,496.827,166.687,495.985,168.902z"/>
<g>
</g>
<g>
</g>
<g>
</g>
<g>
</g>
<g>
</g>
<g>
</g>
<g>
</g>
<g>
</g>
<g>
</g>
<g>
</g>
<g>
</g>
<g>
</g>
<g>
</g>
<g>
</g>
<g>
</g>
</svg>
